<svg xmlns="http://www.w3.org/2000/svg" version="1.1" viewBox="-5.0 -10.0 110.0 135.0" fill='#3354F4' width="30" height="30" >
 <path d="m24.09 45.609c5.8281 0 10.578-4.7383 10.578-10.578s-4.7383-10.578-10.578-10.578-10.578 4.7383-10.578 10.578 4.75 10.578 10.578 10.578zm0-18.871c4.5703 0 8.3008 3.7188 8.3008 8.3008 0 4.5703-3.7188 8.3008-8.3008 8.3008-4.5703 0-8.3008-3.7188-8.3008-8.3008 0.011719-4.5781 3.7305-8.3008 8.3008-8.3008zm51.82 18.871c5.8281 0 10.578-4.7383 10.578-10.578s-4.7383-10.578-10.578-10.578-10.578 4.7383-10.578 10.578c-0.003906 5.8398 4.7461 10.578 10.578 10.578zm0-18.871c4.5703 0 8.3008 3.7188 8.3008 8.3008 0 4.5703-3.7188 8.3008-8.3008 8.3008-4.5703 0-8.3008-3.7188-8.3008-8.3008 0-4.5781 3.7188-8.3008 8.3008-8.3008zm0 21.07c-4.1914 0-8.1992 1.25-11.648 3.6016-4.0117-2.8984-8.9414-4.6094-14.25-4.6094-5.3203 0-10.238 1.7109-14.25 4.6094-3.4609-2.3516-7.4609-3.6016-11.648-3.6016-11.5 0-20.852 9.3516-20.852 20.852v3.25c0 2.6797 2.1797 4.8594 4.8594 4.8594h17.781c0.73047 2.1992 2.8008 3.8008 5.25 3.8008h37.77c2.4414 0 4.5195-1.6016 5.25-3.8008h17.781c2.6797 0 4.8594-2.1797 4.8594-4.8594v-3.25c-0.050781-11.5-9.4023-20.852-20.902-20.852zm-50.32 23.402v3.2812l-17.5-0.003907c-1.4219 0-2.5703-1.1602-2.5703-2.5703v-3.25c0-10.238 8.3281-18.57 18.57-18.57 3.4883 0 6.8516 0.96875 9.7891 2.8086-5.0781 4.4648-8.2891 11.016-8.2891 18.305zm46.539 3.8281c0 1.7891-1.4609 3.2383-3.2383 3.2383l-37.77 0.003906c-1.7891 0-3.2383-1.4609-3.2383-3.2383v-3.8281c0-12.199 9.9297-22.129 22.129-22.129s22.129 9.9297 22.129 22.129v3.8242zm22.352-3.1289c0 1.4219-1.1602 2.5703-2.5703 2.5703h-17.5v-3.2812c0-7.2891-3.2109-13.828-8.2891-18.309 2.9414-1.8398 6.3008-2.8086 9.7891-2.8086 10.238 0 18.57 8.3281 18.57 18.57zm-44.48-27.922c6.7695 0 12.281-5.5117 12.281-12.281 0-6.7656-5.5117-12.277-12.281-12.277s-12.281 5.5117-12.281 12.281c0 6.7695 5.5117 12.277 12.281 12.277zm0-22.277c5.5117 0 10 4.4805 10 10 0 5.5195-4.4805 10-10 10s-10-4.4805-10-10c0-5.5195 4.4883-10 10-10z" stroke-width="3.2"/>
</svg>