<svg width="30" height="30" viewBox="0 0 30 30" fill="none" xmlns="http://www.w3.org/2000/svg">
<path d="M11.5999 6.65614H11.5999V6.66348V9.03848C11.5999 10.1326 11.3143 10.705 11.0091 11.0102C10.7039 11.3154 10.1315 11.601 9.03738 11.601H6.66238C5.56825 11.601 4.99583 11.3154 4.69062 11.0102C4.38542 10.705 4.09988 10.1326 4.09988 9.03848V6.66348C4.09988 5.56936 4.38537 4.99785 4.69092 4.69298C4.99706 4.38753 5.57263 4.10098 6.67488 4.10098H9.04988C10.1446 4.10098 10.7158 4.38678 11.0188 4.69046C11.3212 4.99349 11.6049 5.56337 11.5999 6.65614Z" fill="white" stroke="#c1ceff" stroke-width="3.2"/>
<path d="M20.9624 4.10098H23.3374C24.4316 4.10098 25.004 4.38652 25.3092 4.69172C25.6144 4.99693 25.8999 5.56935 25.8999 6.66348V9.03848C25.8999 10.1326 25.6144 10.705 25.3092 11.0102C25.004 11.3154 24.4316 11.601 23.3374 11.601H20.9624C19.8683 11.601 19.2959 11.3154 18.9907 11.0102C18.6855 10.705 18.3999 10.1326 18.3999 9.03848V6.66348C18.3999 5.56935 18.6855 4.99693 18.9907 4.69172C19.2959 4.38652 19.8683 4.10098 20.9624 4.10098Z" fill="white" stroke="#c1ceff" stroke-width="3.2"/>
<path d="M20.9624 18.3871H23.3374C24.4316 18.3871 25.004 18.6727 25.3092 18.9779C25.6144 19.2831 25.8999 19.8555 25.8999 20.9496V23.3246C25.8999 24.4187 25.6144 24.9912 25.3092 25.2964C25.004 25.6016 24.4316 25.8871 23.3374 25.8871H20.9624C19.8683 25.8871 19.2959 25.6016 18.9907 25.2964C18.6855 24.9912 18.3999 24.4187 18.3999 23.3246V20.9496C18.3999 19.8555 18.6855 19.2831 18.9907 18.9779C19.2959 18.6727 19.8683 18.3871 20.9624 18.3871Z" fill="white" stroke="#c1ceff" stroke-width="3.2"/>
<path d="M11.5999 20.9548H11.5999V20.9621V23.3371C11.5999 24.4312 11.3143 25.0037 11.0091 25.3089C10.7039 25.6141 10.1315 25.8996 9.03738 25.8996H6.66238C5.56826 25.8996 4.99676 25.6141 4.69188 25.3086C4.38643 25.0024 4.09988 24.4269 4.09988 23.3246V20.9496C4.09988 19.8555 4.38537 19.284 4.69092 18.9791C4.99706 18.6737 5.57263 18.3871 6.67488 18.3871H9.04988C10.1446 18.3871 10.7149 18.6729 11.0175 18.9769C11.3202 19.2809 11.6049 19.8539 11.5999 20.9548Z" fill="white" stroke="#c1ceff" stroke-width="3.2"/>
</svg>
